<?xml version="1.0" standalone="no"?>
<!DOCTYPE svg PUBLIC "-//W3C//DTD SVG 20010904//EN"
 "http://www.w3.org/TR/2001/REC-SVG-20010904/DTD/svg10.dtd">
<svg version="1.0" xmlns="http://www.w3.org/2000/svg"
 width="650.000000pt" height="650.000000pt" viewBox="0 0 650.000000 650.000000"
 preserveAspectRatio="xMidYMid meet">
<metadata>
Created by potrace 1.14, written by Peter Selinger 2001-2017
</metadata>
<g transform="translate(0.000000,650.000000) scale(0.100000,-0.100000)"
fill="#000000" stroke="none">
<path d="M3218 6455 c-1 -2 -23 -4 -48 -6 -25 -1 -50 -6 -57 -11 -6 -5 -14 -5
-18 2 -3 6 -12 7 -18 3 -6 -4 -25 -8 -42 -9 -16 -1 -30 -2 -30 -4 0 -1 -16 -4
-35 -6 -65 -7 -137 -19 -180 -29 -34 -8 -97 -18 -102 -17 -5 1 -8 -2 -8 -6 0
-5 -13 -8 -30 -7 -16 1 -30 -1 -30 -5 0 -7 -77 -25 -92 -21 -5 0 -8 -2 -8 -6
0 -5 -11 -9 -25 -9 -14 -1 -33 -5 -43 -10 -20 -9 -15 -7 -72 -23 -25 -7 -49
-16 -55 -19 -5 -4 -17 -7 -25 -7 -8 0 -19 -3 -25 -6 -5 -4 -28 -12 -50 -19
-22 -7 -53 -18 -70 -25 -16 -7 -62 -25 -102 -40 -72 -28 -88 -48 -34 -41 16 2
45 -2 65 -9 22 -8 33 -9 29 -2 -3 6 -1 7 6 3 10 -7 46 -16 196 -52 29 -7 34
-9 100 -29 33 -11 62 -19 65 -20 3 0 10 -3 15 -6 6 -4 25 -10 43 -14 17 -3 32
-11 32 -15 0 -5 6 -7 14 -4 8 3 17 1 21 -5 3 -6 15 -11 26 -11 11 0 31 -7 44
-16 14 -9 25 -12 25 -8 0 5 4 3 8 -4 5 -7 18 -14 29 -16 12 -3 35 -12 52 -20
16 -9 37 -16 46 -16 8 0 15 -4 15 -8 0 -7 52 -31 67 -30 3 0 9 -4 12 -9 8 -11
63 -37 74 -35 4 1 7 -1 7 -6 0 -4 15 -13 33 -21 17 -8 39 -19 47 -26 8 -7 38
-25 65 -40 28 -15 59 -35 71 -46 11 -10 25 -19 31 -19 5 0 22 -11 37 -25 14
-13 26 -21 26 -17 0 4 4 2 8 -3 4 -6 23 -22 42 -35 38 -27 65 -48 85 -67 8 -7
18 -13 23 -13 6 0 12 -7 16 -15 3 -8 12 -15 21 -15 8 0 15 -7 15 -15 0 -8 5
-15 12 -15 17 0 318 -308 318 -326 0 -8 4 -14 9 -14 9 0 127 -156 149 -197 7
-12 18 -27 24 -35 7 -7 22 -29 32 -48 11 -19 22 -37 25 -40 4 -3 12 -16 18
-30 7 -14 28 -53 47 -87 19 -35 32 -63 28 -63 -4 0 -2 -4 3 -8 6 -4 25 -41 43
-82 19 -41 41 -88 50 -105 9 -16 16 -32 15 -35 -2 -18 13 -31 36 -28 14 1 32
-1 39 -5 6 -5 12 -5 12 0 0 4 29 8 65 8 37 0 65 -4 65 -10 0 -7 3 -7 8 0 4 6
21 10 37 10 17 0 33 -4 37 -10 5 -7 8 -7 8 0 0 6 16 10 35 10 19 0 35 -4 35
-10 0 -7 3 -7 8 0 4 6 21 10 37 10 17 0 33 -4 37 -10 5 -7 8 -7 8 0 0 6 125
10 355 10 230 0 355 -4 355 -10 0 -7 3 -7 8 0 4 6 21 10 37 10 17 0 33 -4 37
-10 5 -7 8 -7 8 0 0 6 16 10 35 10 19 0 35 -4 35 -10 0 -7 3 -7 8 0 4 6 21 10
37 10 17 0 33 -4 37 -10 5 -7 8 -7 8 0 0 6 97 9 275 8 199 -2 276 1 281 9 4 7
2 14 -4 16 -7 2 -12 9 -12 16 0 7 -10 32 -22 57 -12 24 -22 46 -23 49 -1 14
-103 208 -117 224 -10 10 -15 22 -13 26 3 4 -2 13 -10 20 -8 7 -15 19 -15 26
0 8 -5 14 -11 14 -5 0 -8 4 -5 9 3 5 -1 14 -9 21 -8 7 -15 16 -15 21 0 10
-194 302 -215 322 -8 8 -11 17 -8 21 4 3 2 6 -4 6 -5 0 -25 21 -44 48 -43 60
-41 58 -164 198 -108 123 -350 356 -359 346 -3 -3 -6 -1 -6 4 0 6 -29 32 -65
59 -36 27 -65 53 -65 57 0 5 -6 8 -13 8 -8 0 -22 9 -32 20 -10 11 -24 20 -31
20 -7 0 -14 4 -16 8 -4 12 -95 72 -107 72 -6 0 -11 5 -11 10 0 6 -7 10 -15 10
-8 0 -15 4 -15 8 0 9 -298 162 -385 199 -27 11 -86 32 -130 47 -44 15 -87 30
-95 33 -8 4 -18 7 -22 8 -5 2 -11 4 -15 5 -5 1 -11 2 -15 1 -4 0 -20 4 -35 10
-15 6 -41 13 -56 15 -16 2 -34 7 -40 11 -7 4 -20 6 -29 5 -10 -2 -18 0 -18 5
0 7 -31 12 -97 16 -13 0 -23 4 -23 8 0 4 -8 6 -17 4 -10 -1 -22 0 -27 3 -5 3
-30 7 -55 8 -25 2 -59 6 -76 10 -32 6 -501 15 -507 9z"/>
<path d="M626 4702 c-3 -5 -24 -8 -48 -7 -41 1 -44 0 -61 -39 -58 -127 -136
-337 -150 -401 -2 -5 -5 -14 -9 -20 -3 -5 -9 -26 -14 -45 -11 -50 -11 -50 -14
-52 -1 -2 -3 -12 -5 -23 -2 -11 -8 -35 -13 -53 -6 -18 -11 -35 -11 -37 -1 -3
-1 -6 -2 -7 0 -2 -2 -12 -4 -22 -2 -11 -7 -31 -11 -45 -4 -14 -6 -30 -5 -34 1
-5 -4 -27 -10 -50 -6 -23 -11 -54 -11 -69 0 -16 -2 -28 -6 -28 -4 0 -8 -24 -8
-53 -1 -28 -4 -63 -7 -77 -20 -84 -34 -610 -16 -610 6 0 6 -7 0 -19 -6 -10 -8
-21 -5 -24 4 -3 8 -25 10 -49 8 -101 18 -180 36 -283 7 -38 13 -74 14 -80 1
-5 3 -12 4 -15 1 -3 4 -18 6 -35 3 -16 7 -37 11 -45 7 -18 15 -66 17 -97 0
-13 4 -23 9 -23 4 0 7 -11 7 -25 0 -14 4 -25 8 -25 4 0 9 -12 10 -27 1 -16 6
-37 11 -48 8 -17 43 -119 46 -135 8 -35 30 -90 37 -90 5 0 7 -4 4 -8 -5 -8 1
-22 45 -117 13 -27 23 -53 22 -56 -1 -4 7 -9 17 -12 11 -3 20 -1 20 5 0 5 5 6
11 2 17 -10 149 -11 149 -1 0 4 6 5 12 1 18 -11 48 -12 54 -2 3 4 11 5 17 1
19 -12 37 -12 37 -2 0 6 5 7 11 3 16 -10 89 -12 95 -2 3 4 16 3 29 -2 18 -7
25 -6 25 3 0 7 3 8 8 2 8 -11 37 -13 47 -3 4 4 13 4 21 1 24 -9 117 -9 136 -1
10 5 20 3 24 -3 4 -8 9 -7 15 2 5 8 9 10 9 4 0 -12 70 -12 89 0 10 6 12 4 6
-6 -8 -12 -6 -12 8 0 9 7 17 9 17 4 0 -12 93 -11 102 2 5 6 8 6 8 -1 0 -9 31
-11 50 -4 3 1 10 1 15 0 29 -6 125 -4 125 3 0 4 6 5 12 1 18 -11 48 -12 54 -2
3 4 11 5 17 1 19 -12 37 -12 37 -2 0 6 5 7 11 3 16 -9 89 -12 95 -3 2 4 17 4
32 0 31 -8 64 -7 80 3 6 3 14 1 18 -5 4 -8 9 -7 15 2 5 8 9 10 9 4 0 -12 70
-12 89 0 10 6 12 4 6 -6 -8 -12 -6 -12 8 0 9 7 17 10 17 5 0 -12 153 -11 162
1 5 6 8 6 8 -1 0 -11 31 -13 40 -2 3 3 -6 19 -20 35 -98 111 -250 314 -250
333 0 6 -3 10 -7 10 -5 0 -21 24 -37 53 -16 28 -32 54 -35 57 -14 12 -80 148
-74 154 4 3 2 6 -4 6 -6 0 -14 10 -18 23 -9 28 -8 25 -29 72 -27 59 -66 175
-59 175 3 0 0 6 -6 14 -7 8 -14 25 -16 38 -6 30 -13 62 -21 91 -3 12 -6 32 -7
45 -1 12 -3 22 -6 22 -4 0 -6 10 -7 23 -1 12 -4 49 -8 82 -4 33 -8 80 -9 105
-1 25 -5 50 -9 56 -4 6 -5 14 -1 18 3 3 7 36 9 73 5 139 8 183 14 183 4 0 6
10 5 22 -1 12 5 52 13 88 7 36 15 70 16 75 1 6 5 16 9 23 5 6 6 12 3 12 -8 0
25 103 38 119 8 12 8 13 -2 7 -7 -4 -3 9 8 28 11 20 20 38 20 41 0 3 0 6 1 8
0 1 2 11 4 21 2 10 7 22 12 25 4 3 9 11 10 16 5 31 9 41 23 52 8 7 11 13 7 13
-5 0 1 17 11 38 11 20 23 44 26 52 4 8 15 29 26 45 11 17 29 46 40 65 33 56
113 177 143 215 51 66 126 153 169 195 21 22 38 45 38 52 0 8 -3 9 -8 3 -8
-12 -191 -13 -209 -2 -6 4 -14 3 -17 -1 -4 -8 -50 -9 -66 -2 -3 1 -9 1 -15 0
-26 -7 -62 -6 -82 1 -13 5 -25 4 -28 -1 -6 -11 -33 -9 -52 3 -6 4 -14 4 -16 0
-7 -10 -188 -10 -204 0 -6 4 -14 3 -17 -1 -4 -8 -50 -9 -66 -2 -3 1 -9 1 -15
0 -26 -7 -62 -6 -82 1 -13 5 -25 4 -28 -1 -6 -11 -33 -9 -52 3 -6 4 -14 4 -17
-1 -5 -9 -218 -8 -234 1 -6 4 -13 3 -17 -3 -6 -10 -33 -9 -52 3 -6 4 -14 4
-16 0 -7 -10 -188 -10 -204 0 -6 4 -14 3 -17 -1 -4 -8 -50 -9 -66 -2 -3 1 -9
1 -15 0 -26 -7 -62 -6 -82 1 -13 5 -25 4 -28 -1 -6 -11 -33 -9 -52 3 -6 4 -14
4 -17 -1z"/>
<path d="M4308 2157 c-8 -6 -28 -46 -45 -87 -40 -96 -124 -273 -133 -280 -4
-3 -10 -15 -14 -27 -4 -13 -12 -23 -17 -23 -6 0 -8 -4 -5 -8 3 -5 -15 -39 -40
-76 -24 -37 -44 -70 -44 -73 0 -7 -54 -78 -62 -81 -5 -2 -8 -8 -8 -13 0 -12
-105 -148 -128 -166 -9 -7 -13 -13 -9 -13 3 0 -15 -23 -41 -51 -89 -97 -272
-276 -272 -265 0 2 -21 -16 -47 -40 -27 -24 -51 -44 -54 -44 -3 0 -16 -9 -28
-19 -12 -11 -48 -37 -79 -58 -31 -21 -59 -41 -62 -44 -3 -3 -34 -23 -70 -44
-36 -21 -85 -51 -110 -66 -25 -15 -55 -30 -67 -34 -13 -3 -23 -11 -23 -16 0
-5 -3 -8 -7 -7 -5 1 -42 -14 -83 -34 -75 -36 -146 -67 -155 -67 -3 0 -20 -8
-38 -18 -17 -9 -36 -16 -41 -15 -4 2 -14 -2 -20 -8 -7 -5 -16 -7 -19 -3 -4 3
-7 2 -7 -4 0 -5 -7 -10 -15 -11 -8 -1 -22 -3 -30 -4 -8 -1 -15 -5 -15 -10 0
-5 -3 -7 -8 -5 -4 3 -23 -2 -42 -12 -19 -9 -45 -16 -57 -15 -13 1 -23 -2 -23
-6 0 -4 -6 -7 -12 -8 -7 0 -33 -6 -58 -13 -25 -6 -54 -13 -65 -15 -11 -2 -40
-8 -65 -15 -25 -6 -61 -12 -80 -14 -19 -2 -37 -5 -40 -6 -10 -4 -26 -7 -54 -8
-18 -1 -26 -5 -20 -10 7 -7 98 -40 127 -47 4 -1 9 -3 12 -4 3 -1 8 -3 13 -5 4
-1 14 -4 22 -8 30 -12 172 -57 188 -60 9 -1 22 -6 29 -10 6 -4 23 -8 37 -9 14
-1 26 -6 26 -10 0 -4 3 -7 8 -6 9 2 83 -12 102 -19 19 -8 69 -18 175 -38 11
-2 20 -4 20 -5 0 -2 53 -12 140 -25 11 -1 20 -3 20 -4 0 -2 23 -3 50 -5 28 -1
56 -5 63 -9 7 -5 12 -3 12 5 0 9 3 9 10 -2 8 -13 55 -15 322 -15 218 0 323 4
346 12 20 8 32 8 32 2 0 -6 4 -7 10 -4 10 6 25 10 84 19 116 19 141 23 141 26
0 2 32 9 65 14 14 2 32 6 41 10 9 4 27 8 40 10 13 2 33 7 44 11 11 4 37 13 58
21 20 8 39 14 42 14 3 0 6 0 8 1 1 0 11 2 22 4 11 2 21 9 23 15 2 5 8 8 13 5
4 -3 21 1 37 9 16 8 32 12 36 9 3 -4 6 -1 6 5 0 7 3 11 8 11 4 -1 10 0 15 1 4
1 10 3 15 5 7 2 62 25 122 53 19 8 49 25 65 36 17 12 31 20 32 19 7 -4 43 11
43 18 0 5 3 8 8 7 9 -3 169 89 207 119 6 5 35 25 65 45 67 44 192 140 274 211
66 56 331 317 323 317 -3 0 9 15 26 33 49 52 88 98 137 163 24 32 48 64 52 69
50 59 198 281 198 295 0 6 4 10 10 10 5 0 12 11 16 25 3 14 9 25 13 25 8 0 28
38 29 54 0 5 5 12 10 15 5 3 31 49 58 101 27 52 52 97 57 98 4 2 7 7 7 12 0 5
13 37 30 72 41 90 52 120 40 113 -6 -3 -10 -1 -10 5 0 8 -6 8 -20 0 -11 -6
-20 -7 -20 -2 0 10 -42 8 -59 -3 -6 -3 -11 -1 -11 5 0 6 -5 8 -12 3 -19 -11
-38 -12 -38 -2 0 6 -8 5 -20 -1 -11 -6 -20 -7 -20 -3 0 10 -41 10 -58 -1 -7
-4 -12 -2 -12 4 0 6 -5 8 -12 3 -19 -11 -38 -12 -38 -2 0 6 -8 5 -20 -1 -11
-6 -20 -7 -20 -3 0 10 -41 10 -58 -1 -7 -4 -12 -2 -12 4 0 6 -5 8 -12 3 -17
-10 -38 -13 -38 -4 0 9 -42 7 -58 -3 -7 -4 -12 -2 -12 4 0 6 -5 8 -12 3 -17
-10 -38 -13 -38 -4 0 9 -42 7 -58 -3 -7 -4 -12 -2 -12 4 0 6 -5 8 -12 3 -17
-10 -38 -13 -38 -4 0 9 -42 7 -58 -3 -7 -4 -12 -2 -12 4 0 6 -5 8 -12 4 -17
-11 -58 -11 -58 -1 0 4 -9 3 -20 -3 -14 -8 -20 -8 -20 0 0 8 -6 8 -20 0 -14
-8 -20 -8 -20 0 0 8 -6 8 -20 0 -12 -6 -20 -7 -20 -1 0 10 -19 9 -37 -2 -8 -5
-13 -3 -13 3 0 6 -5 8 -12 3 -17 -10 -38 -13 -38 -4 0 9 -42 7 -58 -3 -7 -4
-12 -2 -12 4 0 6 -5 8 -12 3 -17 -10 -38 -13 -38 -4 0 9 -42 7 -58 -3 -7 -4
-12 -2 -12 4 0 6 -5 8 -12 4 -17 -11 -58 -11 -58 -1 0 4 -9 3 -20 -3 -14 -8
-20 -8 -20 0 0 8 -6 8 -20 0 -14 -8 -20 -8 -20 0 0 8 -6 8 -20 0 -12 -6 -20
-7 -20 -1 0 10 -19 9 -37 -2 -8 -5 -13 -3 -13 3 0 6 -5 8 -12 3 -17 -10 -38
-13 -38 -4 0 9 -42 7 -58 -3 -7 -4 -12 -2 -12 4 0 6 -5 8 -12 3 -17 -10 -38
-13 -38 -4 0 9 -42 7 -58 -3 -7 -4 -12 -2 -12 4 0 6 -5 8 -12 3 -17 -10 -38
-13 -38 -4 0 8 -47 7 -56 -2 -4 -3 -14 -2 -23 3 -10 5 -23 5 -31 0 -8 -5 -19
-5 -25 0 -7 6 -17 5 -27 -3z"/>
</g>
</svg>
