<svg width="100" height="100" viewBox="0 0 100 100" fill="none" xmlns="http://www.w3.org/2000/svg">
<g clip-path="url(#clip0_2381_13211)">
<path d="M73 43C79.6274 43 85 37.6274 85 31C85 24.3726 79.6274 19 73 19C66.3726 19 61 24.3726 61 31C61 37.6274 66.3726 43 73 43Z" fill="#E8EBEC"/>
<path d="M59 100C70.598 100 80 90.598 80 79C80 67.402 70.598 58 59 58C47.402 58 38 67.402 38 79C38 90.598 47.402 100 59 100Z" fill="#E8EBEC"/>
<path d="M22 45C34.1503 45 44 35.1503 44 23C44 10.8497 34.1503 1 22 1C9.84974 1 0 10.8497 0 23C0 35.1503 9.84974 45 22 45Z" fill="#E8EBEC"/>
<path d="M44.3078 68.5156H37.9014V89.8705H44.3078V68.5156Z" fill="#A3D4FF"/>
<path d="M37.8887 68.5156H41.0919V84.5318C41.0919 84.815 40.9794 85.0866 40.7792 85.2868C40.5789 85.4871 40.3073 85.5996 40.0242 85.5996H37.8887V68.5156Z" fill="white"/>
<path d="M44.3059 90.6714H37.8994C37.6871 90.6714 37.4834 90.587 37.3332 90.4368C37.183 90.2866 37.0986 90.083 37.0986 89.8706V68.5157C37.0986 68.3033 37.183 68.0996 37.3332 67.9494C37.4834 67.7992 37.6871 67.7148 37.8994 67.7148H44.3059C44.5183 67.7148 44.722 67.7992 44.8722 67.9494C45.0224 68.0996 45.1067 68.3033 45.1067 68.5157V89.8706C45.1067 90.083 45.0224 90.2866 44.8722 90.4368C44.722 90.587 44.5183 90.6714 44.3059 90.6714ZM38.7003 89.0698H43.5051V69.3165H38.7003V89.0698Z" fill="#2B5185"/>
<path d="M37.8909 79.1934H31.4844V89.8708H37.8909V79.1934Z" fill="#A3D4FF"/>
<path d="M31.4834 79.1934H34.6866V84.5321C34.6866 84.8153 34.5741 85.0869 34.3739 85.2871C34.1737 85.4873 33.9021 85.5998 33.6189 85.5998H31.4834V79.1934Z" fill="white"/>
<path d="M37.8889 90.6717H31.4825C31.2701 90.6717 31.0664 90.5873 30.9162 90.4371C30.766 90.2869 30.6816 90.0832 30.6816 89.8708V79.1934C30.6816 78.981 30.766 78.7773 30.9162 78.6271C31.0664 78.4769 31.2701 78.3926 31.4825 78.3926H37.8889C38.1013 78.3926 38.305 78.4769 38.4552 78.6271C38.6054 78.7773 38.6897 78.981 38.6897 79.1934V89.8708C38.6897 90.0832 38.6054 90.2869 38.4552 90.4371C38.305 90.5873 38.1013 90.6717 37.8889 90.6717ZM32.2833 89.07H37.0881V79.9942H32.2833V89.07Z" fill="#2B5185"/>
<path d="M31.4836 72.7871H25.0771V89.871H31.4836V72.7871Z" fill="#A3D4FF"/>
<path d="M57.3244 72.7871H50.918V89.871H57.3244V72.7871Z" fill="#A3D4FF"/>
<path d="M25.0762 72.7871H28.2794V84.5323C28.2794 84.8155 28.1669 85.0871 27.9667 85.2873C27.7664 85.4876 27.4948 85.6001 27.2117 85.6001H25.0762V72.7871Z" fill="white"/>
<path d="M50.917 72.7871H54.1202V84.5323C54.1202 84.8155 54.0077 85.0871 53.8075 85.2873C53.6073 85.4876 53.3357 85.6001 53.0525 85.6001H50.917V72.7871Z" fill="white"/>
<path d="M31.4817 90.6719H25.0752C24.8628 90.6719 24.6591 90.5875 24.509 90.4373C24.3588 90.2871 24.2744 90.0835 24.2744 89.8711V72.7871C24.2744 72.5747 24.3588 72.3711 24.509 72.2209C24.6591 72.0707 24.8628 71.9863 25.0752 71.9863H31.4817C31.6941 71.9863 31.8978 72.0707 32.048 72.2209C32.1981 72.3711 32.2825 72.5747 32.2825 72.7871V89.8711C32.2825 90.0835 32.1981 90.2871 32.048 90.4373C31.8978 90.5875 31.6941 90.6719 31.4817 90.6719ZM25.876 89.0703H30.6809V73.5879H25.876V89.0703Z" fill="#2B5185"/>
<path d="M57.3225 90.6719H50.916C50.7037 90.6719 50.5 90.5875 50.3498 90.4373C50.1996 90.2871 50.1152 90.0835 50.1152 89.8711V72.7871C50.1152 72.5747 50.1996 72.3711 50.3498 72.2209C50.5 72.0707 50.7037 71.9863 50.916 71.9863H57.3225C57.5349 71.9863 57.7386 72.0707 57.8888 72.2209C58.039 72.3711 58.1233 72.5747 58.1233 72.7871V89.8711C58.1233 90.0835 58.039 90.2871 57.8888 90.4373C57.7386 90.5875 57.5349 90.6719 57.3225 90.6719ZM51.7169 89.0703H56.5217V73.5879H51.7169V89.0703Z" fill="#2B5185"/>
<path d="M25.0774 77.0566H18.6709V89.8696H25.0774V77.0566Z" fill="#A3D4FF"/>
<path d="M50.9182 77.0566H44.5117V89.8696H50.9182V77.0566Z" fill="#A3D4FF"/>
<path d="M18.6699 77.0566H21.8732V84.5309C21.8732 84.814 21.7607 85.0856 21.5604 85.2859C21.3602 85.4861 21.0886 85.5986 20.8054 85.5986H18.6699V77.0566Z" fill="white"/>
<path d="M45.5781 77.0566H48.7814V84.5309C48.7814 84.814 48.6689 85.0856 48.4686 85.2859C48.2684 85.4861 47.9968 85.5986 47.7136 85.5986H45.5781V77.0566Z" fill="white"/>
<path d="M25.0774 90.6704H18.6709C18.4585 90.6704 18.2548 90.5861 18.1047 90.4359C17.9545 90.2857 17.8701 90.082 17.8701 89.8696V77.0567C17.8701 76.8443 17.9545 76.6406 18.1047 76.4904C18.2548 76.3402 18.4585 76.2559 18.6709 76.2559H25.0774C25.2898 76.2559 25.4935 76.3402 25.6437 76.4904C25.7938 76.6406 25.8782 76.8443 25.8782 77.0567V89.8696C25.8782 90.082 25.7938 90.2857 25.6437 90.4359C25.4935 90.5861 25.2898 90.6704 25.0774 90.6704ZM19.4717 89.0688H24.2766V77.8575H19.4717V89.0688Z" fill="#2B5185"/>
<path d="M50.9172 90.6704H44.5108C44.2984 90.6704 44.0947 90.5861 43.9445 90.4359C43.7943 90.2857 43.71 90.082 43.71 89.8696V77.0567C43.71 76.8443 43.7943 76.6406 43.9445 76.4904C44.0947 76.3402 44.2984 76.2559 44.5108 76.2559H50.9172C51.1296 76.2559 51.3333 76.3402 51.4835 76.4904C51.6337 76.6406 51.7181 76.8443 51.7181 77.0567V89.8696C51.7181 90.082 51.6337 90.2857 51.4835 90.4359C51.3333 90.5861 51.1296 90.6704 50.9172 90.6704ZM45.3116 89.0688H50.1164V77.8575H45.3116V89.0688Z" fill="#2B5185"/>
<circle cx="39.7583" cy="41.5561" r="22.9565" fill="white"/>
<path d="M46.6983 62.6776C41.4148 62.0317 38.6909 62.9443 32.8734 55.6835C29.2229 51.8096 28.3448 46.8679 28.0134 41.5554C27.6821 36.2428 29.1436 30.9043 32.2844 26.6069C35.4252 22.3095 38.7457 19.2366 43.908 17.9392C40.5857 17.533 37.2148 17.8634 34.0346 18.9068C30.8544 19.9503 27.9429 21.6812 25.507 23.9766C23.0711 26.272 21.1705 29.0757 19.9403 32.1884C18.71 35.3011 18.1802 38.6465 18.3886 41.987C18.5969 45.3276 19.5383 48.5812 21.1458 51.517C22.7533 54.4527 24.9875 56.9985 27.6897 58.9735C30.3919 60.9484 33.4959 62.3041 36.7811 62.9443C40.0664 63.5845 43.4522 63.4935 46.6983 62.6776Z" fill="#A3D4FF"/>
<path d="M61.6931 48.764C61.7019 48.7451 61.7084 48.7262 61.7158 48.7065C62.6377 46.2105 63.1424 43.514 63.1424 40.7016C63.1424 37.7802 62.5935 34.986 61.6024 32.4095C61.59 32.3728 61.5778 32.3382 61.5606 32.3039C58.1896 23.6683 49.7867 17.5312 39.9721 17.5312C27.196 17.5312 16.8018 27.9255 16.8018 40.7016C16.8018 53.4773 27.1955 63.8714 39.9711 63.8719H39.9713C39.9713 63.8719 39.9713 63.8719 39.9714 63.8719H39.9721C49.9139 63.8719 58.4114 57.5766 61.6931 48.764ZM29.1943 40.7016C29.1943 38.0979 29.6198 35.6935 30.3003 33.5041H39.1392V47.5835H30.2019C29.5781 45.4795 29.1943 43.1801 29.1943 40.7016ZM49.0509 31.8384H40.8049V20.3539C42.8485 22.1283 46.7923 26.0885 49.0509 31.8384ZM39.1392 20.1327V31.8384H30.8803C33.1366 26.0176 37.088 21.9589 39.1392 20.1327ZM39.1392 49.2492V61.2704C37.0513 59.4116 32.9967 55.2378 30.7631 49.2492H39.1392ZM40.8049 61.2713V49.2492H49.176C46.9436 55.232 42.8935 59.4111 40.8049 61.2713ZM40.8049 47.5835V33.5041H49.637C50.3222 35.6846 50.7498 38.0885 50.7498 40.7016C50.7498 43.1827 50.3568 45.4777 49.7318 47.5835H40.8049ZM51.3994 33.5041H60.2338C61.0361 35.7559 61.4767 38.1778 61.4767 40.7016C61.4767 43.1082 61.0734 45.4211 60.3408 47.5835H51.49C52.0641 45.4722 52.4155 43.1773 52.4155 40.7016C52.4155 38.0943 52.0292 35.6932 51.3994 33.5041ZM59.5575 31.8384H50.8578C48.6174 25.625 44.4985 21.3529 42.1637 19.3079C49.9179 20.0963 56.4616 25.0246 59.5575 31.8384ZM37.5041 19.3429C35.131 21.5241 31.2281 25.7973 29.0747 31.8384H20.3867C23.4455 25.1061 29.8714 20.2194 37.5041 19.3429ZM19.7103 33.5041H28.5391C27.9129 35.7008 27.5287 38.1027 27.5287 40.7016C27.5287 43.1773 27.88 45.4722 28.4542 47.5835H19.6034C18.8708 45.4211 18.4674 43.1082 18.4674 40.7016C18.4674 38.1778 18.9081 35.7559 19.7103 33.5041ZM20.2438 49.2492H28.96C31.0874 55.4589 35.0895 59.8409 37.5041 62.0603C29.7522 61.17 23.2429 56.1445 20.2438 49.2492ZM42.4401 62.0603C44.8547 59.8409 48.8568 55.4589 50.9842 49.2492H59.7004C56.7013 56.1445 50.1919 61.17 42.4401 62.0603Z" fill="#2B5185"/>
<path d="M64.7199 75.5508H71.5107V68.5677H64.7199V75.5508Z" fill="#A3D4FF"/>
<path d="M68.1715 73.2891H64.712V68.5696H69.2393V72.2213C69.2393 72.5045 69.1267 72.7761 68.9265 72.9763C68.7263 73.1766 68.4547 73.2891 68.1715 73.2891Z" fill="white"/>
<path d="M64.1543 76.1107C64.0044 75.9604 63.9202 75.7567 63.9203 75.5444L63.9203 68.5681C63.9204 68.3559 64.0048 68.1524 64.1549 68.0024C64.3049 67.8523 64.5084 67.7679 64.7206 67.7678L71.5157 67.7678C71.7279 67.768 71.9314 67.8523 72.0815 68.0024C72.2315 68.1524 72.3159 68.3559 72.316 68.5681L72.3085 75.552C72.3084 75.7642 72.224 75.9676 72.0739 76.1177C71.9238 76.2678 71.7204 76.3522 71.5082 76.3523H64.7131C64.5023 76.3484 64.3015 76.2616 64.1543 76.1107ZM65.5209 69.3684L65.5209 74.7441H70.7154L70.7154 69.3684L65.5209 69.3684Z" fill="#2B5185"/>
<path d="M63.0861 85.2754H73.1016V75.5803H63.0861V85.2754Z" fill="#A3D4FF"/>
<path d="M67.9641 82.2109H63.1059V75.5375H70.0996V80.0754C70.0996 80.6418 69.8746 81.185 69.4741 81.5855C69.0736 81.986 68.5305 82.2109 67.9641 82.2109Z" fill="white"/>
<path d="M62.516 85.7825C62.366 85.6322 62.2818 85.4285 62.282 85.2162L62.282 75.5219C62.2821 75.3097 62.3665 75.1062 62.5165 74.9561C62.6666 74.8061 62.8701 74.7217 63.0823 74.7216L73.0937 74.7216C73.3042 74.7271 73.5046 74.8132 73.6535 74.9621C73.8024 75.111 73.8885 75.3114 73.894 75.5219L73.894 85.2162C73.8939 85.4284 73.8095 85.6319 73.6595 85.782C73.5094 85.932 73.3059 86.0164 73.0937 86.0165L63.0823 86.0166C62.87 86.0167 62.6663 85.9325 62.516 85.7825ZM63.8826 76.3222L63.8826 84.4159L72.2934 84.4159L72.3312 76.3297L63.8826 76.3222Z" fill="#2B5185"/>
<path d="M66.4488 90.3656L69.7859 90.3655C70.6706 90.3642 71.5187 90.0122 72.1442 89.3867C72.7698 88.7611 73.1218 87.9131 73.1231 87.0284L73.1306 85.239L63.089 85.2088L63.089 87.0058C63.0852 87.448 63.1695 87.8866 63.337 88.296C63.5045 88.7053 63.7519 89.0772 64.0646 89.3899C64.3773 89.7027 64.7493 89.9501 65.1586 90.1176C65.568 90.2851 66.0065 90.3694 66.4488 90.3656Z" fill="white"/>
<path d="M70.0964 85.2385L70.0964 87.0355C70.0951 87.9201 69.7431 88.7682 69.1176 89.3937C68.492 90.0193 67.6439 90.3713 66.7593 90.3726L66.4422 90.3726L69.7793 90.3726C70.664 90.3713 71.5121 90.0193 72.1376 89.3937C72.7632 88.7682 73.1152 87.9201 73.1165 87.0355L73.124 85.2461L70.0964 85.2385Z" fill="#A3D4FF"/>
<path d="M63.5199 89.9576C63.1347 89.5735 62.8297 89.1168 62.6223 88.614C62.4149 88.1111 62.3094 87.5721 62.3119 87.0282L62.3043 85.2388C62.3045 85.0266 62.3888 84.8231 62.5389 84.673C62.6889 84.523 62.8924 84.4386 63.1047 84.4385L73.1161 84.4385C73.3283 84.4386 73.5318 84.523 73.6818 84.673C73.8319 84.8231 73.9163 85.0266 73.9164 85.2388L73.9164 87.0357C73.9171 87.5793 73.8105 88.1176 73.6028 88.6199C73.3952 89.1222 73.0904 89.5786 72.7061 89.9629C72.3218 90.3472 71.8654 90.652 71.3631 90.8596C70.8608 91.0673 70.3225 91.1739 69.7789 91.1732L66.4418 91.1732C65.8986 91.1737 65.3607 91.0665 64.8592 90.8578C64.3577 90.6492 63.9025 90.3432 63.5199 89.9576ZM63.9125 86.0316L63.9125 87.0282C63.9272 87.6964 64.1992 88.3331 64.6718 88.8057C65.1444 89.2783 65.7811 89.5503 66.4493 89.565L69.7865 89.565C70.459 89.5639 71.1035 89.2962 71.579 88.8207C72.0545 88.3452 72.3222 87.7006 72.3233 87.0282L72.3158 86.0391L63.9125 86.0316Z" fill="#2B5185"/>
<path d="M54.5426 63.7061C62.0483 71.2117 74.2173 71.2117 81.723 63.7061C89.2286 56.2004 89.2286 44.0314 81.723 36.5257C74.2173 29.0201 62.0483 29.0201 54.5426 36.5257C47.037 44.0314 47.037 56.2004 54.5426 63.7061Z" fill="white"/>
<path d="M87.2955 50.4332C85.6167 54.5948 82.5345 58.0378 78.5833 60.1652C74.6322 62.2926 70.0612 62.9704 65.6627 62.081C61.2642 61.1916 57.3156 58.7912 54.5014 55.2958C51.6872 51.8004 50.1848 47.4305 50.2547 42.9435C49.1991 45.5603 48.7325 48.3775 48.8883 51.1949C49.0441 54.0124 49.8183 56.7609 51.1561 59.2454C52.4938 61.7299 54.3622 63.8894 56.6285 65.5704C58.8949 67.2515 61.5036 68.4128 64.2693 68.9721C67.0351 69.5313 69.8901 69.4747 72.6315 68.8062C75.3729 68.1378 77.9335 66.8739 80.1314 65.1043C82.3293 63.3347 84.1106 61.1028 85.3487 58.5673C86.5869 56.0317 87.2516 53.2546 87.2955 50.4332Z" fill="#A3D4FF"/>
<path d="M53.9764 64.2721C51.1765 61.4722 49.2697 57.9049 48.4973 54.0214C47.7248 50.1378 48.1212 46.1124 49.6365 42.4542C51.1518 38.796 53.7179 35.6693 57.0102 33.4694C60.3025 31.2696 64.1732 30.0954 68.1328 30.0954C72.0924 30.0954 75.9631 31.2696 79.2555 33.4694C82.5478 35.6693 85.1138 38.796 86.6291 42.4542C88.1444 46.1125 88.5409 50.1379 87.7684 54.0214C86.9959 57.9049 85.0891 61.4722 82.2892 64.2721C78.5347 68.0266 73.4425 70.1359 68.1328 70.1359C62.8231 70.1359 57.7309 68.0266 53.9764 64.2721ZM81.1568 37.0917C78.5809 34.5158 75.299 32.7616 71.7261 32.0509C68.1533 31.3403 64.4499 31.705 61.0843 33.0991C57.7188 34.4931 54.8422 36.8539 52.8183 39.8828C50.7944 42.9117 49.7142 46.4728 49.7142 50.1156C49.7142 53.7585 50.7944 57.3195 52.8183 60.3485C54.8422 63.3774 57.7188 65.7382 61.0843 67.1322C64.4499 68.5263 68.1533 68.891 71.7261 68.1804C75.299 67.4697 78.5808 65.7154 81.1567 63.1395C84.6109 59.6854 86.5514 55.0006 86.5514 50.1156C86.5514 45.2307 84.6109 40.5459 81.1568 37.0917Z" fill="#2B5185"/>
<path d="M67.5662 50.6815C67.4918 50.6055 67.4328 50.5158 67.3926 50.4173C67.3329 50.2715 67.3176 50.1114 67.3485 49.957C67.3793 49.8025 67.4551 49.6606 67.5662 49.549L81.1564 35.9588C81.3066 35.8087 81.5103 35.7243 81.7227 35.7243C81.935 35.7243 82.1387 35.8087 82.2889 35.9588C82.4391 36.109 82.5235 36.3127 82.5235 36.5251C82.5235 36.7375 82.4391 36.9412 82.2889 37.0914L70.0351 49.3452L87.3626 49.6396C87.5432 49.6824 87.7033 49.7865 87.8157 49.9343C87.928 50.082 87.9855 50.2642 87.9783 50.4497C87.9712 50.6351 87.8999 50.8124 87.7765 50.951C87.6532 51.0897 87.4855 51.1813 87.3022 51.21L68.0872 50.9458C67.8864 50.9264 67.7004 50.8321 67.5662 50.6815Z" fill="#2B5185"/>
<path d="M69.62 69.7837C69.4915 69.6532 69.4116 69.4827 69.3936 69.3005L67.4003 50.8027L49.0309 47.9261C48.8337 47.8803 48.6611 47.7615 48.548 47.5936C48.4348 47.4257 48.3895 47.2212 48.4211 47.0212C48.4526 46.8212 48.5588 46.6405 48.7182 46.5157C48.8776 46.3908 49.0783 46.3309 49.2801 46.3481L68.2686 49.3455C68.4426 49.3689 68.6041 49.4488 68.7282 49.573C68.8524 49.6971 68.9323 49.8586 68.9556 50.0326L71.0017 69.1268C71.018 69.2906 70.9833 69.4555 70.9025 69.5989C70.8216 69.7423 70.6986 69.8573 70.55 69.9283C70.4015 69.9993 70.2347 70.0227 70.0723 69.9955C69.91 69.9683 69.76 69.8917 69.6427 69.7761L69.62 69.7837Z" fill="#2B5185"/>
<path d="M61.7369 56.511C65.2687 60.0428 70.9949 60.0428 74.5268 56.511C78.0586 52.9792 78.0586 47.2529 74.5268 43.7211C70.9949 40.1893 65.2687 40.1893 61.7369 43.7211C58.2051 47.2529 58.2051 52.9792 61.7369 56.511Z" fill="white"/>
<path d="M76.8456 47.7148C76.323 49.6249 75.1871 51.3103 73.6128 52.5116C72.0386 53.713 70.1131 54.3638 68.1328 54.3638C66.1525 54.3638 64.2271 53.713 62.6528 52.5116C61.0785 51.3103 59.9427 49.6249 59.42 47.7148C59.0462 49.0583 58.9881 50.47 59.2503 51.8397C59.5126 53.2093 60.088 54.4998 60.9316 55.6102C61.7752 56.7206 62.8642 57.6208 64.1134 58.2406C65.3627 58.8604 66.7383 59.1829 68.1328 59.1829C69.5273 59.1829 70.903 58.8604 72.1522 58.2406C73.4014 57.6209 74.4904 56.7206 75.334 55.6102C76.1777 54.4998 76.7531 53.2093 77.0153 51.8396C77.2775 50.47 77.2195 49.0583 76.8456 47.7148Z" fill="#A3D4FF"/>
<path d="M61.1716 57.077C59.7948 55.7002 58.8572 53.946 58.4774 52.0363C58.0975 50.1267 58.2925 48.1472 59.0376 46.3484C59.7827 44.5495 61.0445 43.012 62.6634 41.9303C64.2824 40.8485 66.1857 40.2711 68.1328 40.2711C70.0799 40.2711 71.9833 40.8485 73.6022 41.9303C75.2211 43.012 76.4829 44.5495 77.2281 46.3484C77.9732 48.1472 78.1681 50.1267 77.7883 52.0363C77.4084 53.946 76.4708 55.7002 75.094 57.077C73.2478 58.9232 70.7438 59.9604 68.1328 59.9604C65.5219 59.9604 63.0179 58.9232 61.1716 57.077ZM73.9615 44.2871C72.8087 43.1343 71.3399 42.3492 69.741 42.0311C68.142 41.7131 66.4846 41.8763 64.9784 42.5002C63.4722 43.1241 62.1848 44.1806 61.279 45.5362C60.3733 46.8918 59.8898 48.4854 59.8898 50.1158C59.8898 51.7461 60.3733 53.3398 61.279 54.6953C62.1848 56.0509 63.4722 57.1074 64.9784 57.7313C66.4846 58.3552 68.142 58.5184 69.741 58.2004C71.3399 57.8823 72.8087 57.0972 73.9615 55.9444C75.5074 54.3986 76.3758 52.3019 76.3758 50.1158C76.3758 47.9296 75.5074 45.8329 73.9615 44.2871Z" fill="#2B5185"/>
<path d="M52.472 12.948C52.2429 12.948 52.0231 12.857 51.8611 12.6949C51.699 12.5329 51.608 12.3131 51.608 12.084C51.608 11.5923 51.5112 11.1055 51.323 10.6512C51.1348 10.197 50.8591 9.78426 50.5114 9.4366C50.1638 9.08894 49.751 8.81315 49.2968 8.625C48.8425 8.43685 48.3557 8.34001 47.864 8.34001C47.6349 8.34001 47.4151 8.24898 47.2531 8.08694C47.091 7.92491 47 7.70514 47 7.476C47 7.24685 47.091 7.0271 47.2531 6.86507C47.4151 6.70303 47.6349 6.612 47.864 6.612C48.3562 6.61226 48.8436 6.5155 49.2983 6.32721C49.753 6.13892 50.1662 5.86282 50.5141 5.51471C50.8621 5.1666 51.1379 4.7533 51.326 4.29846C51.514 3.84363 51.6105 3.35617 51.61 2.864C51.61 2.63485 51.701 2.4151 51.8631 2.25307C52.0251 2.09104 52.2449 2 52.474 2C52.7031 2 52.9229 2.09104 53.0849 2.25307C53.247 2.4151 53.338 2.63485 53.338 2.864C53.338 3.35567 53.4348 3.84253 53.623 4.29677C53.8111 4.75101 54.0869 5.16375 54.4346 5.51141C54.7823 5.85908 55.195 6.13486 55.6492 6.32301C56.1035 6.51117 56.5903 6.608 57.082 6.608C57.3111 6.608 57.5309 6.69904 57.6929 6.86107C57.855 7.0231 57.946 7.24285 57.946 7.472C57.946 7.70115 57.855 7.92092 57.6929 8.08295C57.5309 8.24498 57.3111 8.336 57.082 8.336C56.5903 8.336 56.1035 8.43285 55.6492 8.621C55.195 8.80916 54.7823 9.08494 54.4346 9.4326C54.0869 9.78026 53.8111 10.193 53.623 10.6472C53.4348 11.1015 53.338 11.5883 53.338 12.08C53.3385 12.194 53.3165 12.3069 53.2732 12.4123C53.2299 12.5178 53.1662 12.6136 53.0857 12.6942C53.0052 12.7749 52.9095 12.8389 52.8042 12.8824C52.6989 12.926 52.586 12.9483 52.472 12.948ZM50.813 7.476C51.4785 7.90368 52.0443 8.46948 52.472 9.13501C52.8997 8.46948 53.4655 7.90368 54.131 7.476C53.4659 7.04776 52.9003 6.48208 52.472 5.817C52.0438 6.48208 51.4781 7.04776 50.813 7.476Z" fill="#2B5185"/>
<path d="M71.472 22.948C71.2429 22.948 71.0231 22.857 70.8611 22.6949C70.699 22.5329 70.608 22.3131 70.608 22.084C70.608 21.5923 70.5112 21.1055 70.323 20.6512C70.1348 20.197 69.8591 19.7843 69.5114 19.4366C69.1638 19.0889 68.751 18.8132 68.2968 18.625C67.8425 18.4368 67.3557 18.34 66.864 18.34C66.6349 18.34 66.4151 18.249 66.2531 18.0869C66.091 17.9249 66 17.7051 66 17.476C66 17.2469 66.091 17.0271 66.2531 16.8651C66.4151 16.703 66.6349 16.612 66.864 16.612C67.3562 16.6123 67.8436 16.5155 68.2983 16.3272C68.753 16.1389 69.1662 15.8628 69.5141 15.5147C69.8621 15.1666 70.1379 14.7533 70.326 14.2985C70.514 13.8436 70.6105 13.3562 70.61 12.864C70.61 12.6349 70.701 12.4151 70.8631 12.2531C71.0251 12.091 71.2449 12 71.474 12C71.7031 12 71.9229 12.091 72.0849 12.2531C72.247 12.4151 72.338 12.6349 72.338 12.864C72.338 13.3557 72.4348 13.8425 72.623 14.2968C72.8111 14.751 73.0869 15.1638 73.4346 15.5114C73.7823 15.8591 74.195 16.1349 74.6492 16.323C75.1035 16.5112 75.5903 16.608 76.082 16.608C76.3111 16.608 76.5309 16.699 76.6929 16.8611C76.855 17.0231 76.946 17.2429 76.946 17.472C76.946 17.7011 76.855 17.9209 76.6929 18.0829C76.5309 18.245 76.3111 18.336 76.082 18.336C75.5903 18.336 75.1035 18.4328 74.6492 18.621C74.195 18.8092 73.7823 19.0849 73.4346 19.4326C73.0869 19.7803 72.8111 20.193 72.623 20.6472C72.4348 21.1015 72.338 21.5883 72.338 22.08C72.3385 22.194 72.3165 22.3069 72.2732 22.4123C72.2299 22.5178 72.1662 22.6136 72.0857 22.6942C72.0052 22.7749 71.9095 22.8389 71.8042 22.8824C71.6989 22.926 71.586 22.9483 71.472 22.948ZM69.813 17.476C70.4785 17.9037 71.0443 18.4695 71.472 19.135C71.8997 18.4695 72.4655 17.9037 73.131 17.476C72.4659 17.0478 71.9003 16.4821 71.472 15.817C71.0438 16.4821 70.4781 17.0478 69.813 17.476Z" fill="#2B5185"/>
<path d="M90.472 79.948C90.2429 79.948 90.0231 79.857 89.8611 79.6949C89.699 79.5329 89.608 79.3131 89.608 79.084C89.608 78.5923 89.5112 78.1055 89.323 77.6512C89.1348 77.197 88.8591 76.7843 88.5114 76.4366C88.1638 76.0889 87.751 75.8132 87.2968 75.625C86.8425 75.4368 86.3557 75.34 85.864 75.34C85.6349 75.34 85.4151 75.249 85.2531 75.0869C85.091 74.9249 85 74.7051 85 74.476C85 74.2469 85.091 74.0271 85.2531 73.8651C85.4151 73.703 85.6349 73.612 85.864 73.612C86.3562 73.6123 86.8436 73.5155 87.2983 73.3272C87.753 73.1389 88.1662 72.8628 88.5141 72.5147C88.8621 72.1666 89.1379 71.7533 89.326 71.2985C89.514 70.8436 89.6105 70.3562 89.61 69.864C89.61 69.6349 89.701 69.4151 89.8631 69.2531C90.0251 69.091 90.2449 69 90.474 69C90.7031 69 90.9229 69.091 91.0849 69.2531C91.247 69.4151 91.338 69.6349 91.338 69.864C91.338 70.3557 91.4348 70.8425 91.623 71.2968C91.8111 71.751 92.0869 72.1638 92.4346 72.5114C92.7823 72.8591 93.195 73.1349 93.6492 73.323C94.1035 73.5112 94.5903 73.608 95.082 73.608C95.3111 73.608 95.5309 73.699 95.6929 73.8611C95.855 74.0231 95.946 74.2429 95.946 74.472C95.946 74.7011 95.855 74.9209 95.6929 75.0829C95.5309 75.245 95.3111 75.336 95.082 75.336C94.5903 75.336 94.1035 75.4328 93.6492 75.621C93.195 75.8092 92.7823 76.0849 92.4346 76.4326C92.0869 76.7803 91.8111 77.193 91.623 77.6472C91.4348 78.1015 91.338 78.5883 91.338 79.08C91.3385 79.194 91.3165 79.3069 91.2732 79.4123C91.2299 79.5178 91.1662 79.6136 91.0857 79.6942C91.0052 79.7749 90.9095 79.8389 90.8042 79.8824C90.6989 79.926 90.586 79.9483 90.472 79.948ZM88.813 74.476C89.4785 74.9037 90.0443 75.4695 90.472 76.135C90.8997 75.4695 91.4655 74.9037 92.131 74.476C91.4659 74.0478 90.9003 73.4821 90.472 72.817C90.0438 73.4821 89.4781 74.0478 88.813 74.476Z" fill="#2B5185"/>
</g>
<defs>
<clipPath id="clip0_2381_13211">
<rect width="100" height="100" fill="white"/>
</clipPath>
</defs>
</svg>
