<svg xmlns="http://www.w3.org/2000/svg" width="100" height="100" viewBox="0 0 100 100">
  <g id="icon_003" transform="translate(21.104 15.24)">
    <circle id="Эллипс_17148" data-name="Эллипс 17148" cx="26.5" cy="26.5" r="26.5" transform="translate(-21.104 31.76)" fill="#e8ebec"/>
    <circle id="Эллипс_17149" data-name="Эллипс 17149" cx="16" cy="16" r="16" transform="translate(46.896 -15.24)" fill="#e8ebec"/>
    <circle id="Эллипс_17150" data-name="Эллипс 17150" cx="24.5" cy="24.5" r="24.5" transform="translate(29.896 31.76)" fill="#e8ebec"/>
    <path id="Контур_9808" data-name="Контур 9808" d="M528.272,414.456h-4.514a27.471,27.471,0,0,0-1.575-5.858l3.916-2.257a1.68,1.68,0,0,0,.619-2.3l-2.52-4.367a1.68,1.68,0,0,0-2.3-.619l-3.916,2.257a27.892,27.892,0,0,0-4.283-4.283l2.268-3.916a1.68,1.68,0,0,0-.619-2.3l-4.367-2.52a1.68,1.68,0,0,0-2.3.619l-2.257,3.916a27.5,27.5,0,0,0-5.858-1.575V386.74a1.68,1.68,0,0,0-1.68-1.68h-5.039a1.68,1.68,0,0,0-1.68,1.68V391.3a27.486,27.486,0,0,0-5.858,1.575l-2.3-3.947a1.68,1.68,0,0,0-2.3-.619l-4.367,2.52a1.68,1.68,0,0,0-.609,2.3l2.257,3.916a27.9,27.9,0,0,0-4.283,4.283l-3.916-2.257a1.68,1.68,0,0,0-2.3.62l-2.52,4.367a1.68,1.68,0,0,0,.609,2.3l3.916,2.257a27.468,27.468,0,0,0-1.575,5.858H464.41a1.68,1.68,0,0,0-1.68,1.68v5.039a1.68,1.68,0,0,0,1.68,1.68h4.514a27.482,27.482,0,0,0,1.575,5.858l-3.916,2.257a1.68,1.68,0,0,0-.609,2.3l2.52,4.367a1.68,1.68,0,0,0,2.3.619L474.709,436a27.9,27.9,0,0,0,4.283,4.283l-2.257,3.916a1.68,1.68,0,0,0,.609,2.3l4.367,2.52a1.68,1.68,0,0,0,2.3-.619l2.257-3.916a27.411,27.411,0,0,0,5.858,1.575v4.514a1.68,1.68,0,0,0,1.68,1.68h5.039a1.68,1.68,0,0,0,1.68-1.68v-4.514a27.417,27.417,0,0,0,5.858-1.575l2.257,3.916a1.68,1.68,0,0,0,2.3.619l4.367-2.52a1.68,1.68,0,0,0,.62-2.3l-2.268-3.916A27.908,27.908,0,0,0,517.941,436l3.916,2.268a1.68,1.68,0,0,0,2.3-.619l2.52-4.367a1.68,1.68,0,0,0-.619-2.3l-3.916-2.257a27.474,27.474,0,0,0,1.575-5.858h4.514a1.68,1.68,0,0,0,1.68-1.68v-5.039A1.68,1.68,0,0,0,528.272,414.456Z" transform="translate(-461.974 -384.273)" fill="#fff"/>
    <path id="Контур_9809" data-name="Контур 9809" d="M523.961,403.388l-2.52-4.367a1.68,1.68,0,0,0-2.3-.619l-1.312.756a33.363,33.363,0,0,1,1.89,8.609l3.622-2.1A1.68,1.68,0,0,0,523.961,403.388Z" transform="translate(-459.228 -383.619)" fill="#a3d4ff"/>
    <path id="Контур_9810" data-name="Контур 9810" d="M499.39,449.4v-4.514a27.425,27.425,0,0,0,5.858-1.575l2.257,3.916a1.68,1.68,0,0,0,2.3.619l4.367-2.52a1.68,1.68,0,0,0,.619-2.3l-2.268-3.916a27.9,27.9,0,0,0,4.283-4.283l3.916,2.268a1.68,1.68,0,0,0,2.3-.619l2.52-4.367a1.68,1.68,0,0,0-.619-2.3l-3.916-2.257a27.478,27.478,0,0,0,1.575-5.858h4.514a1.68,1.68,0,0,0,1.68-1.68v-5.039a1.68,1.68,0,0,0-1.68-1.68h-4.514a27.293,27.293,0,0,0-1.2-4.808c0,.546,0,1.05,0,1.659a33.6,33.6,0,0,1-33.6,33.6H486.13a27.279,27.279,0,0,0,4.808,1.2v4.514a1.68,1.68,0,0,0,1.68,1.68h5.039a1.679,1.679,0,0,0,1.732-1.732Z" transform="translate(-460.808 -383.105)" fill="#a3d4ff"/>
    <path id="Контур_9811" data-name="Контур 9811" d="M483.356,445.652l2.1-3.622a33.4,33.4,0,0,1-8.609-1.89l-.756,1.312a1.68,1.68,0,0,0,.609,2.3l4.367,2.52A1.68,1.68,0,0,0,483.356,445.652Z" transform="translate(-461.319 -381.527)" fill="#a3d4ff"/>
    <path id="Контур_9812" data-name="Контур 9812" d="M498.912,453.073h-5.039a2.467,2.467,0,0,1-2.467-2.467v-3.842a28.394,28.394,0,0,1-4.724-1.27l-1.921,3.339a2.467,2.467,0,0,1-3.37.9l-4.367-2.52a2.467,2.467,0,0,1-.9-3.37l1.932-3.339a28.681,28.681,0,0,1-3.454-3.454l-3.339,1.932a2.467,2.467,0,0,1-3.37-.9l-2.52-4.367a2.467,2.467,0,0,1,.9-3.37l3.339-1.921a28.348,28.348,0,0,1-1.27-4.724h-3.853a2.467,2.467,0,0,1-2.467-2.467v-5.039a2.467,2.467,0,0,1,2.467-2.467H468.3a28.348,28.348,0,0,1,1.27-4.724l-3.307-1.921a2.478,2.478,0,0,1-.9-3.37l2.52-4.367a2.467,2.467,0,0,1,3.37-.9l3.338,1.932a28.766,28.766,0,0,1,3.454-3.454l-1.932-3.338a2.467,2.467,0,0,1,.9-3.37l4.367-2.52a2.467,2.467,0,0,1,3.37.9l1.921,3.339a28.413,28.413,0,0,1,4.724-1.27v-3.842a2.467,2.467,0,0,1,2.467-2.467H498.9a2.467,2.467,0,0,1,2.467,2.467v3.842a28.446,28.446,0,0,1,4.724,1.27l1.921-3.339a2.467,2.467,0,0,1,3.37-.9l4.367,2.52a2.467,2.467,0,0,1,.9,3.37l-1.932,3.338a28.77,28.77,0,0,1,3.454,3.454l3.339-1.932a2.467,2.467,0,0,1,3.37.9l2.52,4.367a2.478,2.478,0,0,1-.9,3.37L523.163,409a28.443,28.443,0,0,1,1.27,4.724h3.842a2.467,2.467,0,0,1,2.467,2.467v5.039a2.467,2.467,0,0,1-2.467,2.467h-3.811a28.436,28.436,0,0,1-1.27,4.724l3.339,1.921a2.467,2.467,0,0,1,.9,3.37l-2.52,4.367a2.467,2.467,0,0,1-3.37.9l-3.339-1.932a28.913,28.913,0,0,1-3.454,3.454l1.932,3.339a2.467,2.467,0,0,1-.9,3.37l-4.367,2.52a2.478,2.478,0,0,1-3.37-.9l-1.953-3.338a28.446,28.446,0,0,1-4.724,1.27v3.853A2.467,2.467,0,0,1,498.912,453.073Zm-12.6-9.344a.8.8,0,0,1,.284.052,26.773,26.773,0,0,0,5.69,1.533.787.787,0,0,1,.672.777v4.514a.892.892,0,0,0,.892.892h5.039a.892.892,0,0,0,.892-.892v-4.514a.787.787,0,0,1,.672-.777,26.77,26.77,0,0,0,5.69-1.533.8.8,0,0,1,.966.336l2.257,3.916a.892.892,0,0,0,1.218.326l4.367-2.52a.892.892,0,0,0,.325-1.218l-2.236-3.947a.787.787,0,0,1,.189-1.05,27.213,27.213,0,0,0,4.2-4.2.788.788,0,0,1,1.05-.189L522.4,437.5a.892.892,0,0,0,1.218-.325l2.52-4.367a.892.892,0,0,0,.094-.682.882.882,0,0,0-.42-.546l-3.968-2.142a.787.787,0,0,1-.336-.966,26.871,26.871,0,0,0,1.533-5.69.787.787,0,0,1,.777-.672h4.514a.892.892,0,0,0,.892-.892v-5.039a.892.892,0,0,0-.892-.892h-4.514a.787.787,0,0,1-.777-.672,26.859,26.859,0,0,0-1.533-5.69.787.787,0,0,1,.336-.966l3.916-2.257a.893.893,0,0,0,.326-1.218l-2.52-4.367a.882.882,0,0,0-.546-.42.9.9,0,0,0-.672.084l-3.916,2.257a.787.787,0,0,1-1.05-.189,27.028,27.028,0,0,0-4.2-4.2.787.787,0,0,1-.189-1.05l2.268-3.916a.892.892,0,0,0-.326-1.218l-4.367-2.52a.892.892,0,0,0-1.218.325l-2.2,3.99a.787.787,0,0,1-.966.336,26.9,26.9,0,0,0-5.69-1.533.787.787,0,0,1-.693-.735v-4.514a.892.892,0,0,0-.892-.892h-5.039a.892.892,0,0,0-.892.892v4.514a.787.787,0,0,1-.672.777,26.9,26.9,0,0,0-5.69,1.533.787.787,0,0,1-.966-.336l-2.257-3.916a.892.892,0,0,0-1.218-.325l-4.367,2.52a.892.892,0,0,0-.325,1.218l2.268,3.916a.787.787,0,0,1-.189,1.05,27.024,27.024,0,0,0-4.2,4.2.787.787,0,0,1-1.05.189l-3.842-2.425a.892.892,0,0,0-1.218.325l-2.52,4.367a.892.892,0,0,0,.325,1.218l3.916,2.257a.787.787,0,0,1,.336.966,26.765,26.765,0,0,0-1.533,5.69.787.787,0,0,1-.777.672h-4.514a.892.892,0,0,0-.892.892v5.039a.892.892,0,0,0,.892.892h4.514a.787.787,0,0,1,.777.672,26.8,26.8,0,0,0,1.533,5.69.787.787,0,0,1-.336.966l-3.916,2.257a.892.892,0,0,0-.326,1.218l2.52,4.367a.882.882,0,0,0,.546.42.892.892,0,0,0,.682-.094l3.916-2.268a.787.787,0,0,1,1.05.189,27.117,27.117,0,0,0,4.2,4.2.787.787,0,0,1,.189,1.05l-2.268,3.916a.892.892,0,0,0,.325,1.218l4.367,2.52a.892.892,0,0,0,1.218-.326l2.257-3.916a.787.787,0,0,1,.609-.4Z" transform="translate(-462.009 -384.308)" fill="#2b5185"/>
    <circle id="Эллипс_16791" data-name="Эллипс 16791" cx="2.1" cy="2.1" r="2.1" transform="translate(3.937 60.629)" fill="#fff"/>
    <path id="Контур_9813" data-name="Контур 9813" d="M467.9,447.084a2.887,2.887,0,1,1,2.887-2.887A2.887,2.887,0,0,1,467.9,447.084Zm0-4.2a1.312,1.312,0,1,0,1.312,1.312,1.312,1.312,0,0,0-1.312-1.312Z" transform="translate(-461.86 -381.469)" fill="#2b5185"/>
    <circle id="Эллипс_16792" data-name="Эллипс 16792" cx="2.1" cy="2.1" r="2.1" transform="translate(0.787 7.086)" fill="#fff"/>
    <path id="Контур_9814" data-name="Контур 9814" d="M464.9,396.094a2.887,2.887,0,1,1,2.887-2.887A2.887,2.887,0,0,1,464.9,396.094Zm0-4.2a1.312,1.312,0,1,0,1.312,1.312A1.312,1.312,0,0,0,464.9,391.895Z" transform="translate(-462.01 -384.01)" fill="#2b5185"/>
    <circle id="Эллипс_16793" data-name="Эллипс 16793" cx="2.1" cy="2.1" r="2.1" transform="translate(8.136 0.787)" fill="#fff"/>
    <path id="Контур_9815" data-name="Контур 9815" d="M471.9,390.084a2.887,2.887,0,1,1,2.887-2.887,2.887,2.887,0,0,1-2.887,2.887Zm0-4.2a1.312,1.312,0,1,0,1.312,1.312A1.312,1.312,0,0,0,471.9,385.885Z" transform="translate(-461.661 -384.31)" fill="#2b5185"/>
    <circle id="Эллипс_16794" data-name="Эллипс 16794" cx="2.1" cy="2.1" r="2.1" transform="translate(57.479 63.778)" fill="#fff"/>
    <path id="Контур_9816" data-name="Контур 9816" d="M518.9,450.084a2.887,2.887,0,1,1,2.887-2.887A2.887,2.887,0,0,1,518.9,450.084Zm0-4.2a1.312,1.312,0,1,0,1.312,1.312A1.312,1.312,0,0,0,518.9,445.885Z" transform="translate(-459.318 -381.319)" fill="#2b5185"/>
    <circle id="Эллипс_16795" data-name="Эллипс 16795" cx="2.1" cy="2.1" r="2.1" transform="translate(63.778 55.379)" fill="#fff"/>
    <path id="Контур_9817" data-name="Контур 9817" d="M524.9,442.084a2.887,2.887,0,1,1,2.887-2.887,2.887,2.887,0,0,1-2.887,2.887Zm0-4.2a1.312,1.312,0,1,0,1.312,1.312A1.312,1.312,0,0,0,524.9,437.885Z" transform="translate(-459.019 -381.718)" fill="#2b5185"/>
    <circle id="Эллипс_16796" data-name="Эллипс 16796" cx="2.1" cy="2.1" r="2.1" transform="translate(58.529 1.837)" fill="#fff"/>
    <path id="Контур_9818" data-name="Контур 9818" d="M519.9,391.084a2.887,2.887,0,1,1,2.887-2.887A2.887,2.887,0,0,1,519.9,391.084Zm0-4.2a1.312,1.312,0,1,0,1.312,1.312A1.312,1.312,0,0,0,519.9,386.885Z" transform="translate(-459.268 -384.26)" fill="#2b5185"/>
    <circle id="Эллипс_16797" data-name="Эллипс 16797" cx="20.997" cy="20.997" r="20.997" transform="translate(13.385 13.386)" fill="#fff"/>
    <path id="Контур_9819" data-name="Контур 9819" d="M505.056,399.27a21,21,0,0,1-25.2,32.608,21,21,0,1,0,25.2-32.608Z" transform="translate(-461.12 -383.564)" fill="#a3d4ff"/>
    <path id="Контур_9820" data-name="Контур 9820" d="M495.794,439.879a21.784,21.784,0,1,1,21.784-21.784A21.784,21.784,0,0,1,495.794,439.879Zm0-41.994a20.21,20.21,0,1,0,20.2,20.206A20.209,20.209,0,0,0,495.794,397.885Z" transform="translate(-461.412 -383.712)" fill="#2b5185"/>
    <path id="Контур_9821" data-name="Контур 9821" d="M474.76,417.765a20.934,20.934,0,0,0,6.152,14.845l5.47-5.47a13.26,13.26,0,0,1,0-18.75l-5.47-5.47a20.934,20.934,0,0,0-6.152,14.845Z" transform="translate(-461.374 -383.382)" fill="#fff"/>
    <path id="Контур_9822" data-name="Контур 9822" d="M477.762,412.687a20.924,20.924,0,0,1,1.638-8.147,21,21,0,0,0,1.512,28l4.052-4.052A20.934,20.934,0,0,1,477.762,412.687Z" transform="translate(-461.374 -383.302)" fill="#a3d4ff"/>
    <path id="Контур_9823" data-name="Контур 9823" d="M480.949,433.485h0a.787.787,0,0,1-.556-.231,21.784,21.784,0,0,1,0-30.813.787.787,0,0,1,1.113,0l5.47,5.47a.787.787,0,0,1,0,1.113,12.472,12.472,0,0,0,0,17.637.787.787,0,0,1,0,1.113l-5.47,5.47A.787.787,0,0,1,480.949,433.485Zm0-29.4a20.209,20.209,0,0,0,0,27.443l4.367-4.357a14.047,14.047,0,0,1,0-18.719Z" transform="translate(-461.412 -383.418)" fill="#2b5185"/>
    <path id="Контур_9824" data-name="Контур 9824" d="M495.465,397.06a20.934,20.934,0,0,0-14.845,6.152l5.47,5.47a13.259,13.259,0,0,1,18.75,0l5.47-5.47a20.934,20.934,0,0,0-14.845-6.152Z" transform="translate(-461.082 -383.674)" fill="#fff"/>
    <path id="Контур_9825" data-name="Контур 9825" d="M500.462,400.062a20.936,20.936,0,0,1,8.157,1.638,21,21,0,0,0-28,1.512l4.052,4.052a20.924,20.924,0,0,1,15.79-7.2Z" transform="translate(-461.082 -383.674)" fill="#a3d4ff"/>
    <path id="Контур_9826" data-name="Контур 9826" d="M504.877,409.506a.787.787,0,0,1-.556-.231,12.472,12.472,0,0,0-17.638,0,.808.808,0,0,1-1.113,0l-5.47-5.47a.787.787,0,0,1,0-1.113,21.784,21.784,0,0,1,30.8,0,.787.787,0,0,1,0,1.113l-5.47,5.47A.787.787,0,0,1,504.877,409.506Zm-9.375-5.459a13.942,13.942,0,0,1,9.365,3.57l4.357-4.367a20.21,20.21,0,0,0-27.443,0l4.367,4.357a13.932,13.932,0,0,1,9.354-3.559Z" transform="translate(-461.12 -383.712)" fill="#2b5185"/>
    <path id="Контур_9827" data-name="Контур 9827" d="M503.69,408.39a13.26,13.26,0,0,1,0,18.75l5.47,5.47a21,21,0,0,0,0-29.69Z" transform="translate(-459.932 -383.382)" fill="#fff"/>
    <path id="Контур_9828" data-name="Контур 9828" d="M513.227,422.774a20.994,20.994,0,0,1-.693,5.249A21,21,0,0,0,509.08,402.9l-3.58,3.58A21,21,0,0,1,513.227,422.774Z" transform="translate(-459.842 -383.383)" fill="#a3d4ff"/>
    <path id="Контур_9829" data-name="Контур 9829" d="M509.2,433.484a.787.787,0,0,1-.556-.231l-5.47-5.47a.787.787,0,0,1,0-1.113,12.472,12.472,0,0,0,0-17.637.787.787,0,0,1,0-1.113l5.47-5.47a.808.808,0,0,1,1.113,0,21.784,21.784,0,0,1,0,30.813A.787.787,0,0,1,509.2,433.484Zm-4.367-6.3,4.357,4.357a20.21,20.21,0,0,0,0-27.443l-4.357,4.357a14.047,14.047,0,0,1,0,18.719Z" transform="translate(-459.97 -383.417)" fill="#2b5185"/>
    <path id="Контур_9830" data-name="Контур 9830" d="M493.883,420.433c2.94.777,18.624,1.344,18.624,1.344s-13.858-7.286-16.8-8.073a3.485,3.485,0,0,0-1.785,6.729Z" transform="translate(-460.54 -382.849)" fill="#fff"/>
    <path id="Контур_9831" data-name="Контур 9831" d="M492.9,415.417c1.963.525,8.64,3.853,12.976,6.068,3.622.189,6.625.294,6.625.294s-13.858-7.286-16.8-8.073a3.475,3.475,0,0,0-3.884,1.617,3.413,3.413,0,0,1,1.081.094Z" transform="translate(-460.524 -382.85)" fill="#a3d4ff"/>
    <path id="Контур_9832" data-name="Контур 9832" d="M512.545,422.6h0c-.64,0-15.8-.577-18.8-1.375h0a4.273,4.273,0,0,1,2.194-8.252c3.034.808,16.43,7.842,17.008,8.136a.787.787,0,0,1-.367,1.491Zm-17.732-8.189a2.7,2.7,0,0,0-.693,5.249h0c1.837.483,9.3.924,14.929,1.176-5-2.572-11.685-5.89-13.543-6.383a2.722,2.722,0,0,0-.693-.042Z" transform="translate(-460.578 -382.886)" fill="#2b5185"/>
  </g>
</svg>
