<svg width="100" height="100" viewBox="0 0 100 100" fill="none" xmlns="http://www.w3.org/2000/svg">
<g clip-path="url(#clip0_2391_12209)">
<path d="M29 100C45.0163 100 58 87.0163 58 71C58 54.9837 45.0163 42 29 42C12.9837 42 0 54.9837 0 71C0 87.0163 12.9837 100 29 100Z" fill="#E8EBEC"/>
<path d="M53 50C66.8071 50 78 38.8071 78 25C78 11.1929 66.8071 0 53 0C39.1929 0 28 11.1929 28 25C28 38.8071 39.1929 50 53 50Z" fill="#E8EBEC"/>
<path d="M73.5 88C83.165 88 91 80.165 91 70.5C91 60.835 83.165 53 73.5 53C63.835 53 56 60.835 56 70.5C56 80.165 63.835 88 73.5 88Z" fill="#E8EBEC"/>
<path d="M12.534 100.068C11.835 100.068 11.1518 99.8607 10.5706 99.4724C9.98946 99.0841 9.5365 98.5321 9.26902 97.8864C9.00154 97.2406 8.93154 96.5301 9.0679 95.8446C9.20427 95.159 9.54086 94.5293 10.0351 94.0351C10.5293 93.5408 11.159 93.2043 11.8445 93.0679C12.5301 92.9316 13.2407 93.0015 13.8864 93.269C14.5322 93.5365 15.0841 93.9894 15.4724 94.5706C15.8607 95.1518 16.068 95.835 16.068 96.534C16.068 97.4713 15.6957 98.3702 15.0329 99.0329C14.3701 99.6957 13.4713 100.068 12.534 100.068V100.068ZM12.534 94.632C12.1582 94.632 11.7909 94.7434 11.4784 94.9522C11.166 95.161 10.9224 95.4577 10.7786 95.8049C10.6348 96.1521 10.5972 96.5341 10.6705 96.9027C10.7438 97.2712 10.9248 97.6098 11.1905 97.8755C11.4562 98.1412 11.7948 98.3222 12.1633 98.3955C12.5319 98.4688 12.9139 98.4312 13.2611 98.2874C13.6083 98.1436 13.905 97.9 14.1138 97.5876C14.3226 97.2751 14.434 96.9078 14.434 96.532C14.434 96.0281 14.2338 95.5448 13.8775 95.1885C13.5212 94.8322 13.0379 94.632 12.534 94.632Z" fill="#2B5185"/>
<path d="M72.4387 12.8227C73.9398 12.8227 75.1567 11.6058 75.1567 10.1047C75.1567 8.60361 73.9398 7.38672 72.4387 7.38672C70.9376 7.38672 69.7207 8.60361 69.7207 10.1047C69.7207 11.6058 70.9376 12.8227 72.4387 12.8227Z" fill="white"/>
<path d="M72.4383 13.6383C71.7393 13.6383 71.0561 13.431 70.4749 13.0427C69.8938 12.6544 69.4408 12.1025 69.1733 11.4567C68.9058 10.811 68.8358 10.1004 68.9722 9.41487C69.1086 8.72934 69.4452 8.09963 69.9394 7.60539C70.4336 7.11115 71.0633 6.77459 71.7488 6.63823C72.4344 6.50187 73.145 6.57183 73.7907 6.83931C74.4365 7.10679 74.9884 7.55975 75.3767 8.14091C75.765 8.72207 75.9723 9.40536 75.9723 10.1043C75.9723 11.0416 75.6 11.9405 74.9372 12.6032C74.2744 13.266 73.3756 13.6383 72.4383 13.6383V13.6383ZM72.4383 8.20231C72.0625 8.20231 71.6952 8.31373 71.3827 8.5225C71.0703 8.73128 70.8267 9.02801 70.6829 9.37519C70.5391 9.72237 70.5015 10.1044 70.5748 10.473C70.6481 10.8415 70.8291 11.1801 71.0948 11.4458C71.3605 11.7115 71.6991 11.8925 72.0676 11.9658C72.4362 12.0391 72.8182 12.0015 73.1654 11.8577C73.5126 11.7139 73.8093 11.4703 74.0181 11.1579C74.2269 10.8454 74.3383 10.4781 74.3383 10.1023C74.3383 9.59839 74.1381 9.11512 73.7818 8.7588C73.4255 8.40248 72.9422 8.20231 72.4383 8.20231V8.20231Z" fill="#2B5185"/>
<path d="M95.9914 56.0825C97.4925 56.0825 98.7094 54.8656 98.7094 53.3645C98.7094 51.8634 97.4925 50.6465 95.9914 50.6465C94.4903 50.6465 93.2734 51.8634 93.2734 53.3645C93.2734 54.8656 94.4903 56.0825 95.9914 56.0825Z" fill="white"/>
<path d="M95.991 56.8961C95.2921 56.8961 94.6088 56.6888 94.0277 56.3005C93.4465 55.9122 92.9935 55.3603 92.726 54.7145C92.4586 54.0688 92.3886 53.3582 92.5249 52.6727C92.6613 51.9872 92.9979 51.3574 93.4921 50.8632C93.9864 50.369 94.616 50.0324 95.3016 49.896C95.9871 49.7597 96.6977 49.8296 97.3434 50.0971C97.9892 50.3646 98.5411 50.8176 98.9294 51.3987C99.3178 51.9799 99.525 52.6632 99.525 53.3621C99.525 54.2994 99.1527 55.1983 98.4899 55.861C97.8272 56.5238 96.9283 56.8961 95.991 56.8961V56.8961ZM95.991 51.4601C95.6152 51.4601 95.2479 51.5715 94.9355 51.7803C94.623 51.9891 94.3795 52.2858 94.2357 52.633C94.0919 52.9802 94.0542 53.3622 94.1275 53.7308C94.2008 54.0993 94.3818 54.4379 94.6475 54.7036C94.9132 54.9693 95.2518 55.1503 95.6204 55.2236C95.9889 55.2969 96.371 55.2593 96.7181 55.1155C97.0653 54.9717 97.3621 54.7281 97.5708 54.4157C97.7796 54.1032 97.891 53.7359 97.891 53.3601C97.891 52.8562 97.6909 52.3729 97.3345 52.0166C96.9782 51.6603 96.4949 51.4601 95.991 51.4601Z" fill="#2B5185"/>
<path d="M88.2281 19.9473H12.4706C11.0759 19.9473 9.94531 21.0779 9.94531 22.4725V32.5735C9.94531 33.9682 11.0759 35.0988 12.4706 35.0988H88.2281C89.6228 35.0988 90.7534 33.9682 90.7534 32.5735V22.4725C90.7534 21.0779 89.6228 19.9473 88.2281 19.9473Z" fill="#A3D4FF"/>
<path d="M88.2281 65.4023H12.4706C11.0759 65.4023 9.94531 66.5329 9.94531 67.9276V78.0286C9.94531 79.4233 11.0759 80.5539 12.4706 80.5539H88.2281C89.6228 80.5539 90.7534 79.4233 90.7534 78.0286V67.9276C90.7534 66.5329 89.6228 65.4023 88.2281 65.4023Z" fill="#A3D4FF"/>
<path d="M88.2281 42.6738H12.4706C11.0759 42.6738 9.94531 43.8044 9.94531 45.1991V55.3001C9.94531 56.6947 11.0759 57.8253 12.4706 57.8253H88.2281C89.6228 57.8253 90.7534 56.6947 90.7534 55.3001V45.1991C90.7534 43.8044 89.6228 42.6738 88.2281 42.6738Z" fill="#A3D4FF"/>
<path d="M12.4706 19.9473H83.1777V23.7351C83.1777 26.749 81.9804 29.6393 79.8493 31.7704C77.7182 33.9015 74.8278 35.0988 71.814 35.0988H12.4706C11.8008 35.0988 11.1585 34.8327 10.6849 34.3592C10.2114 33.8856 9.94531 33.2433 9.94531 32.5735V22.4725C9.94531 21.8028 10.2114 21.1605 10.6849 20.6869C11.1585 20.2133 11.8008 19.9473 12.4706 19.9473Z" fill="white"/>
<path d="M12.4706 65.4023H83.1777V69.1902C83.1777 72.204 81.9804 75.0944 79.8493 77.2255C77.7182 79.3566 74.8278 80.5539 71.814 80.5539H12.4706C11.8008 80.5539 11.1585 80.2878 10.6849 79.8142C10.2114 79.3407 9.94531 78.6983 9.94531 78.0286V67.9276C9.94531 67.2579 10.2114 66.6155 10.6849 66.142C11.1585 65.6684 11.8008 65.4023 12.4706 65.4023Z" fill="white"/>
<path d="M12.4706 42.6738H83.1777V46.4617C83.1777 49.4755 81.9804 52.3659 79.8493 54.497C77.7182 56.6281 74.8278 57.8253 71.814 57.8253H12.4706C11.8008 57.8253 11.1585 57.5593 10.6849 57.0857C10.2114 56.6121 9.94531 55.9698 9.94531 55.3001V45.1991C9.94531 44.5293 10.2114 43.887 10.6849 43.4135C11.1585 42.9399 11.8008 42.6738 12.4706 42.6738Z" fill="white"/>
<path d="M88.2298 36.0454H12.4722C11.5513 36.0454 10.6682 35.6796 10.017 35.0285C9.36581 34.3773 9 33.4941 9 32.5732V22.4722C9 21.5513 9.36581 20.6682 10.017 20.017C10.6682 19.3658 11.5513 19 12.4722 19H88.2298C89.1507 19 90.0339 19.3658 90.685 20.017C91.3362 20.6682 91.702 21.5513 91.702 22.4722V32.5732C91.702 33.4941 91.3362 34.3773 90.685 35.0285C90.0339 35.6796 89.1507 36.0454 88.2298 36.0454ZM12.4722 20.8939C12.0536 20.8939 11.6522 21.0602 11.3562 21.3562C11.0602 21.6522 10.8939 22.0536 10.8939 22.4722V32.5732C10.8939 32.9918 11.0602 33.3933 11.3562 33.6892C11.6522 33.9852 12.0536 34.1515 12.4722 34.1515H88.2298C88.6484 34.1515 89.0498 33.9852 89.3458 33.6892C89.6418 33.3933 89.8081 32.9918 89.8081 32.5732V22.4722C89.8081 22.0536 89.6418 21.6522 89.3458 21.3562C89.0498 21.0602 88.6484 20.8939 88.2298 20.8939H12.4722Z" fill="#2B5185"/>
<path d="M88.2298 81.5005H12.4722C11.5513 81.5005 10.6682 81.1347 10.017 80.4835C9.36581 79.8324 9 78.9492 9 78.0283V67.9273C9 67.0064 9.36581 66.1232 10.017 65.4721C10.6682 64.8209 11.5513 64.4551 12.4722 64.4551H88.2298C89.1507 64.4551 90.0339 64.8209 90.685 65.4721C91.3362 66.1232 91.702 67.0064 91.702 67.9273V78.0283C91.702 78.9492 91.3362 79.8324 90.685 80.4835C90.0339 81.1347 89.1507 81.5005 88.2298 81.5005ZM12.4722 66.349C12.0536 66.349 11.6522 66.5153 11.3562 66.8113C11.0602 67.1073 10.8939 67.5087 10.8939 67.9273V78.0283C10.8939 78.4469 11.0602 78.8483 11.3562 79.1443C11.6522 79.4403 12.0536 79.6066 12.4722 79.6066H88.2298C88.6484 79.6066 89.0498 79.4403 89.3458 79.1443C89.6418 78.8483 89.8081 78.4469 89.8081 78.0283V67.9273C89.8081 67.5087 89.6418 67.1073 89.3458 66.8113C89.0498 66.5153 88.6484 66.349 88.2298 66.349H12.4722Z" fill="#2B5185"/>
<path d="M84.4455 57.8262H16.2637V65.4019H84.4455V57.8262Z" fill="#A3D4FF"/>
<path d="M84.4455 35.0977H16.2637V42.6734H84.4455V35.0977Z" fill="#A3D4FF"/>
<path d="M16.2637 57.8262H79.395V60.3514C79.395 61.6909 78.8629 62.9755 77.9157 63.9227C76.9686 64.8698 75.684 65.4019 74.3445 65.4019H16.2637V57.8262Z" fill="white"/>
<path d="M16.2637 35.0977H79.395V37.6229C79.395 38.9624 78.8629 40.247 77.9157 41.1942C76.9686 42.1413 75.684 42.6734 74.3445 42.6734H16.2637V35.0977Z" fill="white"/>
<path d="M84.4374 66.3486H16.2556C16.0044 66.3486 15.7635 66.2488 15.5859 66.0712C15.4084 65.8937 15.3086 65.6528 15.3086 65.4016V57.8259C15.3086 57.5747 15.4084 57.3339 15.5859 57.1563C15.7635 56.9787 16.0044 56.8789 16.2556 56.8789H84.4374C84.6885 56.8789 84.9294 56.9787 85.107 57.1563C85.2846 57.3339 85.3843 57.5747 85.3843 57.8259V65.4016C85.3843 65.6528 85.2846 65.8937 85.107 66.0712C84.9294 66.2488 84.6885 66.3486 84.4374 66.3486V66.3486ZM17.2025 64.4547H83.4904V58.7728H17.2025V64.4547Z" fill="#2B5185"/>
<path d="M84.4374 43.622H16.2556C16.0044 43.622 15.7635 43.5223 15.5859 43.3447C15.4084 43.1671 15.3086 42.9262 15.3086 42.6751V35.0993C15.3086 34.8482 15.4084 34.6073 15.5859 34.4297C15.7635 34.2521 16.0044 34.1523 16.2556 34.1523H84.4374C84.6885 34.1523 84.9294 34.2521 85.107 34.4297C85.2846 34.6073 85.3843 34.8482 85.3843 35.0993V42.6751C85.3843 42.9262 85.2846 43.1671 85.107 43.3447C84.9294 43.5223 84.6885 43.622 84.4374 43.622V43.622ZM17.2025 41.7281H83.4904V36.0463H17.2025V41.7281Z" fill="#2B5185"/>
<path d="M88.2298 58.772H12.4722C11.5513 58.772 10.6682 58.4062 10.017 57.755C9.36581 57.1039 9 56.2207 9 55.2998V45.1988C9 44.2779 9.36581 43.3947 10.017 42.7435C10.6682 42.0924 11.5513 41.7266 12.4722 41.7266H88.2298C89.1507 41.7266 90.0339 42.0924 90.685 42.7435C91.3362 43.3947 91.702 44.2779 91.702 45.1988V55.2998C91.702 56.2207 91.3362 57.1039 90.685 57.755C90.0339 58.4062 89.1507 58.772 88.2298 58.772ZM12.4722 43.6205C12.0536 43.6205 11.6522 43.7868 11.3562 44.0828C11.0602 44.3788 10.8939 44.7802 10.8939 45.1988V55.2998C10.8939 55.7184 11.0602 56.1198 11.3562 56.4158C11.6522 56.7118 12.0536 56.8781 12.4722 56.8781H88.2298C88.6484 56.8781 89.0498 56.7118 89.3458 56.4158C89.6418 56.1198 89.8081 55.7184 89.8081 55.2998V45.1988C89.8081 44.7802 89.6418 44.3788 89.3458 44.0828C89.0498 43.7868 88.6484 43.6205 88.2298 43.6205H12.4722Z" fill="#2B5185"/>
<path d="M76.864 27.2064H23.8337C23.5825 27.2064 23.3417 27.1067 23.1641 26.9291C22.9865 26.7515 22.8867 26.5106 22.8867 26.2595C22.8867 26.0083 22.9865 25.7674 23.1641 25.5899C23.3417 25.4123 23.5825 25.3125 23.8337 25.3125H76.864C77.1151 25.3125 77.356 25.4123 77.5336 25.5899C77.7112 25.7674 77.811 26.0083 77.811 26.2595C77.811 26.5106 77.7112 26.7515 77.5336 26.9291C77.356 27.1067 77.1151 27.2064 76.864 27.2064V27.2064Z" fill="#2B5185"/>
<path d="M17.5251 77.0801C17.2739 77.0801 17.0331 76.9804 16.8555 76.8028C16.6779 76.6252 16.5781 76.3843 16.5781 76.1331V69.82C16.5781 69.5689 16.6779 69.328 16.8555 69.1504C17.0331 68.9728 17.2739 68.873 17.5251 68.873C17.7762 68.873 18.0171 68.9728 18.1947 69.1504C18.3723 69.328 18.4721 69.5689 18.4721 69.82V76.1331C18.4721 76.3843 18.3723 76.6252 18.1947 76.8028C18.0171 76.9804 17.7762 77.0801 17.5251 77.0801Z" fill="#2B5185"/>
<path d="M17.5251 54.3536C17.2739 54.3536 17.0331 54.2538 16.8555 54.0762C16.6779 53.8986 16.5781 53.6577 16.5781 53.4066V47.0935C16.5781 46.8423 16.6779 46.6014 16.8555 46.4238C17.0331 46.2462 17.2739 46.1465 17.5251 46.1465C17.7762 46.1465 18.0171 46.2462 18.1947 46.4238C18.3723 46.6014 18.4721 46.8423 18.4721 47.0935V53.4066C18.4721 53.6577 18.3723 53.8986 18.1947 54.0762C18.0171 54.2538 17.7762 54.3536 17.5251 54.3536Z" fill="#2B5185"/>
<path d="M17.5251 31.627C17.2739 31.627 17.0331 31.5272 16.8555 31.3496C16.6779 31.172 16.5781 30.9312 16.5781 30.68V24.3669C16.5781 24.1157 16.6779 23.8749 16.8555 23.6973C17.0331 23.5197 17.2739 23.4199 17.5251 23.4199C17.7762 23.4199 18.0171 23.5197 18.1947 23.6973C18.3723 23.8749 18.4721 24.1157 18.4721 24.3669V30.68C18.4721 30.9312 18.3723 31.172 18.1947 31.3496C18.0171 31.5272 17.7762 31.627 17.5251 31.627Z" fill="#2B5185"/>
<path d="M23.8337 77.0801C23.5825 77.0801 23.3417 76.9804 23.1641 76.8028C22.9865 76.6252 22.8867 76.3843 22.8867 76.1331V69.82C22.8867 69.5689 22.9865 69.328 23.1641 69.1504C23.3417 68.9728 23.5825 68.873 23.8337 68.873C24.0848 68.873 24.3257 68.9728 24.5033 69.1504C24.6809 69.328 24.7807 69.5689 24.7807 69.82V76.1331C24.7807 76.3843 24.6809 76.6252 24.5033 76.8028C24.3257 76.9804 24.0848 77.0801 23.8337 77.0801V77.0801Z" fill="#2B5185"/>
<path d="M23.8337 54.3536C23.5825 54.3536 23.3417 54.2538 23.1641 54.0762C22.9865 53.8986 22.8867 53.6577 22.8867 53.4066V47.0935C22.8867 46.8423 22.9865 46.6014 23.1641 46.4238C23.3417 46.2462 23.5825 46.1465 23.8337 46.1465C24.0848 46.1465 24.3257 46.2462 24.5033 46.4238C24.6809 46.6014 24.7807 46.8423 24.7807 47.0935V53.4066C24.7807 53.6577 24.6809 53.8986 24.5033 54.0762C24.3257 54.2538 24.0848 54.3536 23.8337 54.3536V54.3536Z" fill="#2B5185"/>
<path d="M30.1501 77.0801C29.8989 77.0801 29.6581 76.9804 29.4805 76.8028C29.3029 76.6252 29.2031 76.3843 29.2031 76.1331V69.82C29.2031 69.5689 29.3029 69.328 29.4805 69.1504C29.6581 68.9728 29.8989 68.873 30.1501 68.873C30.4012 68.873 30.6421 68.9728 30.8197 69.1504C30.9973 69.328 31.0971 69.5689 31.0971 69.82V76.1331C31.0971 76.3843 30.9973 76.6252 30.8197 76.8028C30.6421 76.9804 30.4012 77.0801 30.1501 77.0801Z" fill="#2B5185"/>
<path d="M36.4645 77.0801C36.2134 77.0801 35.9725 76.9804 35.7949 76.8028C35.6173 76.6252 35.5176 76.3843 35.5176 76.1331V69.82C35.5176 69.5689 35.6173 69.328 35.7949 69.1504C35.9725 68.9728 36.2134 68.873 36.4645 68.873C36.7157 68.873 36.9566 68.9728 37.1342 69.1504C37.3118 69.328 37.4115 69.5689 37.4115 69.82V76.1331C37.4115 76.3843 37.3118 76.6252 37.1342 76.8028C36.9566 76.9804 36.7157 77.0801 36.4645 77.0801Z" fill="#2B5185"/>
<path d="M42.7731 77.0801C42.522 77.0801 42.2811 76.9804 42.1035 76.8028C41.9259 76.6252 41.8262 76.3843 41.8262 76.1331V69.82C41.8262 69.5689 41.9259 69.328 42.1035 69.1504C42.2811 68.9728 42.522 68.873 42.7731 68.873C43.0243 68.873 43.2652 68.9728 43.4428 69.1504C43.6203 69.328 43.7201 69.5689 43.7201 69.82V76.1331C43.7201 76.3843 43.6203 76.6252 43.4428 76.8028C43.2652 76.9804 43.0243 77.0801 42.7731 77.0801V77.0801Z" fill="#2B5185"/>
<path d="M49.0817 77.0801C48.8306 77.0801 48.5897 76.9804 48.4121 76.8028C48.2345 76.6252 48.1348 76.3843 48.1348 76.1331V69.82C48.1348 69.5689 48.2345 69.328 48.4121 69.1504C48.5897 68.9728 48.8306 68.873 49.0817 68.873C49.3329 68.873 49.5738 68.9728 49.7513 69.1504C49.9289 69.328 50.0287 69.5689 50.0287 69.82V76.1331C50.0287 76.3843 49.9289 76.6252 49.7513 76.8028C49.5738 76.9804 49.3329 77.0801 49.0817 77.0801Z" fill="#2B5185"/>
<path d="M30.1501 54.353C29.8989 54.353 29.6581 54.2533 29.4805 54.0757C29.3029 53.8981 29.2031 53.6572 29.2031 53.4061V47.5349C29.2031 47.2837 29.3029 47.0428 29.4805 46.8652C29.6581 46.6877 29.8989 46.5879 30.1501 46.5879C30.4012 46.5879 30.6421 46.6877 30.8197 46.8652C30.9973 47.0428 31.0971 47.2837 31.0971 47.5349V53.3808C31.1004 53.5073 31.0784 53.6331 31.0324 53.751C30.9863 53.8688 30.9171 53.9762 30.8288 54.0668C30.7405 54.1574 30.635 54.2295 30.5184 54.2786C30.4019 54.3278 30.2766 54.3531 30.1501 54.353V54.353Z" fill="#2B5185"/>
<path d="M36.4645 54.3538C36.2134 54.3538 35.9725 54.2541 35.7949 54.0765C35.6173 53.8989 35.5176 53.658 35.5176 53.4069V52.1442C35.5176 51.8931 35.6173 51.6522 35.7949 51.4746C35.9725 51.297 36.2134 51.1973 36.4645 51.1973C36.7157 51.1973 36.9566 51.297 37.1342 51.4746C37.3118 51.6522 37.4115 51.8931 37.4115 52.1442V53.4069C37.4115 53.658 37.3118 53.8989 37.1342 54.0765C36.9566 54.2541 36.7157 54.3538 36.4645 54.3538Z" fill="#2B5185"/>
<path d="M84.4385 73.9232H71.8122C71.5611 73.9232 71.3202 73.8235 71.1426 73.6459C70.965 73.4683 70.8652 73.2274 70.8652 72.9763C70.8652 72.7251 70.965 72.4842 71.1426 72.3067C71.3202 72.1291 71.5611 72.0293 71.8122 72.0293H84.4385C84.6896 72.0293 84.9305 72.1291 85.1081 72.3067C85.2857 72.4842 85.3854 72.7251 85.3854 72.9763C85.3854 73.2274 85.2857 73.4683 85.1081 73.6459C84.9305 73.8235 84.6896 73.9232 84.4385 73.9232V73.9232Z" fill="#2B5185"/>
<path d="M84.4385 51.4369H71.8122C71.5611 51.4369 71.3202 51.3371 71.1426 51.1596C70.965 50.982 70.8652 50.7411 70.8652 50.4899C70.8652 50.2388 70.965 49.9979 71.1426 49.8203C71.3202 49.6427 71.5611 49.543 71.8122 49.543H84.4385C84.6896 49.543 84.9305 49.6427 85.1081 49.8203C85.2857 49.9979 85.3854 50.2388 85.3854 50.4899C85.3854 50.7411 85.2857 50.982 85.1081 51.1596C84.9305 51.3371 84.6896 51.4369 84.4385 51.4369V51.4369Z" fill="#2B5185"/>
<path d="M84.4461 28.4701H79.8122C79.5611 28.4701 79.3202 28.3703 79.1426 28.1928C78.965 28.0152 78.8652 27.7743 78.8652 27.5231C78.8652 27.272 78.965 27.0311 79.1426 26.8535C79.3202 26.6759 79.5611 26.5762 79.8122 26.5762H84.4461C84.6972 26.5762 84.9381 26.6759 85.1157 26.8535C85.2933 27.0311 85.393 27.272 85.393 27.5231C85.393 27.7743 85.2933 28.0152 85.1157 28.1928C84.9381 28.3703 84.6972 28.4701 84.4461 28.4701V28.4701Z" fill="#2B5185"/>
</g>
<defs>
<clipPath id="clip0_2391_12209">
<rect width="100" height="100" fill="white"/>
</clipPath>
</defs>
</svg>
